<svg version="1.1" id="Layer_1" xmlns="http://www.w3.org/2000/svg" xmlns:xlink="http://www.w3.org/1999/xlink" x="0px" y="0px"
	 width="100%" viewBox="0 0 496 496" enable-background="new 0 0 496 496" xml:space="preserve">
<path fill="#000000" opacity="1.000000" stroke="none" 
	d="
M146.606110,158.966934 
	C165.345612,159.010559 183.691971,157.509583 201.937378,159.678284 
	C224.363235,162.343903 239.898514,179.834091 240.320557,202.430649 
	C240.429428,208.259293 240.274734,214.093201 240.406555,219.920944 
	C240.477615,223.062592 239.339844,224.420105 236.053925,224.370071 
	C227.226624,224.235687 218.394348,224.235062 209.567230,224.378555 
	C206.030090,224.436035 204.876022,222.865005 204.923508,219.561874 
	C204.995285,214.567520 205.009750,209.559464 204.723618,204.575897 
	C204.310852,197.387512 200.625153,193.278656 193.639954,191.714462 
	C180.707458,188.818497 178.303604,190.692596 178.293594,203.674454 
	C178.289368,209.171982 178.217316,214.670486 178.300095,220.166672 
	C178.343933,223.076248 177.233231,224.413666 174.191803,224.380951 
	C165.030258,224.282440 155.866562,224.279785 146.704819,224.363068 
	C143.652832,224.390808 142.648560,223.024261 142.658325,220.122192 
	C142.719955,201.797241 142.690811,183.471954 142.688782,165.146790 
	C142.688492,162.454971 143.476364,160.223618 146.606110,158.966934 
z"/>
<path fill="#000000" opacity="1.000000" stroke="none" 
	d="
M149.414749,340.158691 
	C144.064392,339.828583 142.601257,336.923065 142.631699,332.389130 
	C142.742355,315.898804 142.758987,299.406738 142.628128,282.916779 
	C142.598495,279.182281 143.571030,277.477509 147.671066,277.595490 
	C156.325897,277.844482 164.994415,277.771942 173.653915,277.627594 
	C177.101959,277.570160 178.418030,278.877655 178.344543,282.315399 
	C178.195053,289.308289 178.416519,296.309357 178.255997,303.301758 
	C178.181976,306.526642 179.345703,307.548004 182.583893,307.727722 
	C199.210342,308.650543 205.758057,304.145294 205.056488,286.434052 
	C204.709915,277.684326 205.032349,277.672363 213.606873,277.673340 
	C220.769638,277.674164 227.939545,277.864899 235.092484,277.599548 
	C239.310059,277.443085 240.633118,279.078552 240.467468,283.123688 
	C240.094345,292.235352 241.161987,301.421906 238.005646,310.323334 
	C231.827744,327.745941 218.911713,336.812347 201.269348,339.218597 
	C184.227463,341.542969 167.005753,339.775879 149.414749,340.158691 
z"/>
<path fill="#000000" opacity="1.000000" stroke="none" 
	d="
M284.996826,224.353088 
	C279.507996,224.346191 274.515991,224.249725 269.528870,224.364670 
	C266.465515,224.435287 264.877228,223.406143 264.902100,220.100800 
	C265.041016,201.638992 265.101501,183.176590 265.179016,164.714340 
	C265.195740,160.731995 266.744446,158.567017 271.149750,158.675186 
	C278.962646,158.867020 286.785889,158.842178 294.600372,158.686493 
	C299.140228,158.596039 300.939972,160.824158 300.938873,165.042770 
	C300.934082,183.172470 300.903198,201.302216 300.936005,219.431839 
	C300.942230,222.866653 299.800323,224.691345 295.970367,224.399216 
	C292.497864,224.134354 288.988708,224.349335 284.996826,224.353088 
z"/>
<path fill="#000000" opacity="1.000000" stroke="none" 
	d="
M363.328491,204.999512 
	C363.315430,210.491791 363.250427,215.484802 363.309875,220.476318 
	C363.342377,223.204376 362.165588,224.367004 359.422424,224.347183 
	C350.103668,224.279816 340.783997,224.280792 331.465118,224.334412 
	C328.671265,224.350494 327.655273,223.037918 327.660919,220.369675 
	C327.701202,201.398300 327.692810,182.426834 327.684143,163.455383 
	C327.682739,160.361740 329.266144,158.797791 332.265869,158.778854 
	C340.919006,158.724213 349.572693,158.750748 358.226166,158.744873 
	C362.537445,158.741959 363.359039,161.439270 363.342621,165.058762 
	C363.282990,178.205475 363.324890,191.352646 363.328491,204.999512 
z"/>
<path fill="#000000" opacity="1.000000" stroke="none" 
	d="
M302.408569,340.101624 
	C297.977295,339.830414 296.594696,337.547089 296.608826,333.768188 
	C296.672913,316.644775 296.713593,299.520203 296.560730,282.397858 
	C296.526611,278.577850 298.069824,277.555420 301.595337,277.623474 
	C310.070892,277.787109 318.554382,277.799072 327.029266,277.618683 
	C330.686096,277.540863 332.133301,278.945892 332.119080,282.541077 
	C332.053253,299.165588 332.172241,315.791168 332.044983,332.414978 
	C331.995941,338.824158 330.460083,340.100433 323.814423,340.141663 
	C316.832306,340.184967 309.849579,340.131500 302.408569,340.101624 
z"/>
<path fill="#000000" opacity="1.000000" stroke="none" 
	d="
M266.955078,259.778168 
	C263.727753,259.014954 264.938202,256.629303 264.687012,254.837204 
	C264.416412,252.906372 264.971344,250.858231 263.306671,248.064804 
	C263.112732,251.635071 263.046143,254.300583 262.790253,256.947784 
	C262.667725,258.215302 262.558044,259.848450 260.738403,259.859192 
	C258.862518,259.870239 258.882507,258.276031 258.805756,256.965332 
	C258.718292,255.470566 258.743866,253.968552 258.740387,252.469635 
	C258.720642,244.008820 262.148224,241.285019 270.192322,243.403748 
	C272.348297,243.971603 273.762146,245.531998 273.940674,247.629837 
	C274.221771,250.933304 274.112518,254.275513 274.055420,257.599365 
	C274.034637,258.810150 273.554626,259.960663 272.037323,259.941895 
	C270.572418,259.923798 269.995087,258.838989 269.958435,257.608673 
	C269.869904,254.636765 269.929688,251.660416 269.452087,248.653290 
	C267.153473,252.069702 269.666595,256.303589 266.955078,259.778168 
z"/>
<path fill="#000000" opacity="1.000000" stroke="none" 
	d="
M168.988861,254.809875 
	C168.996399,252.361023 168.946915,250.379150 169.026718,248.402481 
	C169.121307,246.059219 169.106552,243.672272 172.544693,243.625412 
	C175.700851,243.582397 178.091232,244.322281 178.689178,247.878357 
	C179.132233,250.513245 179.031723,253.128357 178.645020,255.754929 
	C178.140411,259.182373 176.043777,260.379120 172.750732,260.350586 
	C169.088211,260.318787 169.013489,257.876404 168.988861,254.809875 
z"/>
<path fill="#000000" opacity="1.000000" stroke="none" 
	d="
M236.533875,255.597717 
	C236.492706,252.572235 235.935822,249.945511 236.594391,247.290344 
	C237.133255,245.117813 238.293228,243.680252 240.575958,243.473816 
	C243.031982,243.251724 244.826599,244.378036 245.528000,246.727203 
	C246.640472,250.453186 246.110641,254.286362 245.874847,258.078369 
	C245.809204,259.133911 245.181641,259.954132 244.009857,260.067352 
	C242.251312,260.237335 241.955627,258.711121 241.214310,257.469666 
	C239.902451,258.145691 239.905075,260.945770 237.714264,259.964569 
	C235.967163,259.182098 236.628311,257.407867 236.533875,255.597717 
z"/>
<path fill="#000000" opacity="1.000000" stroke="none" 
	d="
M217.402283,252.531052 
	C217.166550,255.274902 217.999771,257.828522 216.460861,259.749451 
	C214.423706,260.038239 213.851318,259.029572 213.811554,257.792145 
	C213.705338,254.488022 213.646820,251.176208 213.753128,247.873367 
	C213.840622,245.155212 215.490616,243.573669 218.135864,243.375473 
	C220.880890,243.169830 222.702255,244.856659 222.985718,247.366043 
	C223.372955,250.793930 223.192444,254.293213 223.136795,257.759979 
	C223.117188,258.981140 222.569366,260.084534 221.041107,259.957062 
	C219.595963,259.836548 219.116165,258.691650 219.078568,257.507294 
	C218.985718,254.581345 219.048111,251.650452 219.048111,247.973785 
	C216.956604,249.547852 217.608276,250.956543 217.402283,252.531052 
z"/>
<path fill="#000000" opacity="1.000000" stroke="none" 
	d="
M333.369263,259.590088 
	C332.062988,259.984711 331.085205,260.316986 330.129822,260.261780 
	C327.823486,260.128479 326.070251,258.680695 326.371552,256.507355 
	C326.850616,253.051178 329.366333,255.884644 331.333679,255.601044 
	C329.717773,253.778152 328.171722,252.315109 326.972656,250.608276 
	C325.566376,248.606384 325.875916,246.484940 327.534332,244.708557 
	C328.919006,243.225403 330.681488,242.873688 332.518799,243.790726 
	C334.110840,244.585342 335.283539,245.975906 334.842499,247.763626 
	C334.171875,250.482025 332.261414,248.389221 330.498993,248.398499 
	C332.713226,251.876282 338.004669,254.376587 333.369263,259.590088 
z"/>
<path fill="#000000" opacity="1.000000" stroke="none" 
	d="
M308.286743,250.608490 
	C308.271667,252.418518 308.271667,253.894180 308.271667,255.515991 
	C310.026917,255.239258 310.891693,253.019119 312.539978,254.392059 
	C313.386810,255.097412 313.326569,256.190460 313.136658,257.182556 
	C312.824921,258.811035 311.790924,259.804413 310.196259,260.209229 
	C309.877289,260.290222 309.536865,260.325958 309.207397,260.320343 
	C304.520508,260.240662 304.121368,256.851074 303.936249,253.382904 
	C303.579254,246.694153 305.133026,243.283569 308.658112,243.376266 
	C312.166443,243.468506 313.666626,245.426941 312.857697,248.736099 
	C312.082550,252.094940 308.531525,245.531296 308.286743,250.608490 
z"/>
<path fill="#000000" opacity="1.000000" stroke="none" 
	d="
M191.621704,249.211182 
	C191.748871,247.209503 191.119675,245.508453 192.164261,243.947632 
	C196.580887,242.903763 194.422623,247.300674 196.002640,248.664017 
	C197.731232,247.364624 195.818832,242.674408 199.329102,243.924927 
	C202.739487,245.139862 201.300690,248.814575 200.232193,251.268860 
	C199.307785,253.392151 198.059097,255.290451 198.115173,257.741760 
	C198.143768,258.992188 197.540466,260.027252 196.041260,259.988434 
	C194.841965,259.957397 194.070389,259.053162 194.146912,258.078552 
	C194.397232,254.890930 192.083939,252.535889 191.621704,249.211182 
z"/>
<path fill="#000000" opacity="1.000000" stroke="none" 
	d="
M286.947388,255.711563 
	C286.965698,252.447403 286.928528,249.635101 287.040924,246.828796 
	C287.100159,245.350540 287.215790,243.616333 289.360077,243.759033 
	C291.130859,243.876892 291.238037,245.366364 291.254456,246.714798 
	C291.292725,249.855042 291.340790,252.998047 291.247131,256.135834 
	C291.200928,257.684723 291.584961,259.896393 289.186707,259.902710 
	C286.877350,259.908783 287.171204,257.746094 286.947388,255.711563 
z"/>
</svg>