<?xml version="1.0" standalone="no"?>
<!DOCTYPE svg PUBLIC "-//W3C//DTD SVG 20010904//EN"
 "http://www.w3.org/TR/2001/REC-SVG-20010904/DTD/svg10.dtd">
<svg version="1.0" xmlns="http://www.w3.org/2000/svg"
 width="500.000000pt" height="500.000000pt" viewBox="0 0 500.000000 500.000000"
 preserveAspectRatio="xMidYMid meet">

<g transform="translate(0.000000,500.000000) scale(0.100000,-0.100000)"
fill="#000000" stroke="none">
<path d="M1430 3401 c-6 -12 -10 -134 -10 -325 l0 -306 175 0 175 0 0 165 0
165 78 0 c98 0 151 -23 175 -73 13 -26 17 -63 17 -146 l0 -111 175 0 175 0 0
130 c0 163 -18 240 -74 324 -67 99 -168 162 -300 187 -27 5 -167 9 -312 9
-250 0 -264 -1 -274 -19z"/>
<path d="M2650 3401 c-6 -12 -10 -134 -10 -325 l0 -306 174 0 174 0 4 308 c2
169 0 315 -4 325 -8 15 -26 17 -168 17 -147 0 -160 -1 -170 -19z"/>
<path d="M3277 3414 c-4 -4 -7 -151 -7 -326 l0 -318 175 0 175 0 -2 323 -3
322 -166 3 c-91 1 -168 -1 -172 -4z"/>
<path d="M2148 2569 c-25 -14 -27 -159 -3 -159 12 0 15 14 15 65 0 37 4 65 10
65 6 0 10 -28 10 -65 0 -58 2 -65 20 -65 18 0 20 7 20 69 0 61 -3 72 -22 85
-26 19 -27 19 -50 5z"/>
<path d="M2378 2569 c-25 -14 -27 -159 -3 -159 8 0 15 9 15 20 0 11 5 20 10
20 6 0 10 -9 10 -20 0 -13 7 -20 20 -20 18 0 20 7 20 65 0 52 -4 69 -20 85
-23 23 -28 24 -52 9z m32 -59 c0 -16 -4 -30 -10 -30 -5 0 -10 14 -10 30 0 17
5 30 10 30 6 0 10 -13 10 -30z"/>
<path d="M2600 2563 c-17 -12 -20 -25 -20 -84 0 -62 2 -70 18 -67 14 3 18 16
20 66 4 82 22 80 22 -3 0 -51 3 -65 15 -65 12 0 15 14 15 65 0 37 4 65 10 65
6 0 10 -28 10 -65 0 -58 2 -65 20 -65 18 0 20 7 20 69 0 49 -4 72 -15 81 -22
18 -91 20 -115 3z"/>
<path d="M3050 2560 c-14 -14 -20 -33 -20 -68 0 -61 16 -85 55 -80 24 2 31 8
33 31 2 19 -1 27 -12 27 -9 0 -16 -7 -16 -15 0 -8 -4 -15 -10 -15 -5 0 -10 23
-10 50 0 48 12 66 24 35 9 -24 26 -17 26 10 0 14 -8 29 -19 35 -26 13 -28 13
-51 -10z"/>
<path d="M3270 2560 c-26 -26 -25 -33 11 -75 18 -20 28 -39 24 -43 -4 -4 -10
-1 -12 6 -5 12 -43 18 -43 6 0 -19 24 -44 43 -44 50 0 64 55 22 88 -25 20 -33
42 -15 42 6 0 10 -4 10 -10 0 -5 7 -10 15 -10 20 0 19 24 -1 44 -20 21 -30 20
-54 -4z"/>
<path d="M1680 2490 l0 -80 33 0 c17 0 38 4 46 9 18 11 25 89 12 124 -9 23
-16 27 -51 27 l-40 0 0 -80z m60 0 c0 -27 -4 -50 -10 -50 -5 0 -10 23 -10 50
0 28 5 50 10 50 6 0 10 -22 10 -50z"/>
<path d="M1910 2531 c0 -22 5 -43 10 -46 6 -3 10 -22 10 -41 0 -27 4 -34 20
-34 16 0 20 7 20 31 0 17 7 37 15 45 8 9 15 31 15 50 0 27 -4 34 -20 34 -16 0
-20 -7 -20 -36 0 -21 -4 -33 -10 -29 -5 3 -10 19 -10 36 0 19 -5 29 -15 29
-11 0 -15 -11 -15 -39z"/>
<path d="M2860 2490 c0 -73 2 -80 20 -80 18 0 20 7 20 80 0 73 -2 80 -20 80
-18 0 -20 -7 -20 -80z"/>
<path d="M1420 1938 c0 -168 4 -299 10 -308 8 -13 52 -15 292 -15 246 0 291 2
343 18 90 28 149 62 203 116 89 89 122 186 122 364 l0 117 -175 0 -175 0 0
-97 c0 -80 -4 -104 -20 -131 -34 -55 -73 -72 -167 -72 l-83 0 0 150 0 150
-175 0 -175 0 0 -292z"/>
<path d="M2960 1931 c0 -242 3 -301 14 -310 9 -8 61 -11 162 -9 147 3 149 3
161 28 9 18 13 100 13 308 l0 282 -175 0 -175 0 0 -299z"/>
</g>
</svg>
